<svg width="8" height="14" viewBox="0 0 8 14" fill="none" xmlns="http://www.w3.org/2000/svg">
<path d="M6.62883 -4.29153e-05C6.34629 -4.29153e-05 6.12171 0.101382 5.9261 0.289742L0.369476 5.71596C0.123159 5.96228 0.00724506 6.21584 4.76837e-07 6.52736C4.76837e-07 6.83888 0.115914 7.09969 0.369476 7.33876L5.9261 12.7722C6.12171 12.9606 6.35353 13.062 6.62883 13.062C7.19391 13.062 7.64308 12.6128 7.64308 12.055C7.64308 11.7797 7.52716 11.5189 7.32431 11.3161L2.39797 6.52736L7.32431 1.74591C7.52716 1.54306 7.64308 1.28226 7.64308 1.00696C7.64308 0.449124 7.19391 -4.29153e-05 6.62883 -4.29153e-05Z" fill="#7D8696"/>
</svg>
