<svg width="18" height="18" viewBox="0 0 18 18" fill="none" xmlns="http://www.w3.org/2000/svg">
<path d="M9.92298 3.6462V0.923005C9.92298 0.415307 9.50768 0 8.99998 0C8.49228 0 8.07697 0.415307 8.07697 0.923005V3.64603C7.13077 4.0153 6.46161 4.93831 6.46161 5.99995C6.46161 7.08457 7.13076 8.00762 8.10017 8.3769C8.10017 8.4231 8.07715 8.49232 8.07715 8.53852V16.154C8.07715 16.6617 8.49246 17.077 9.00016 17.077C9.50786 17.077 9.92316 16.6617 9.92316 16.154L9.923 8.53852C9.923 8.4693 9.923 8.4231 9.89998 8.3769C10.8692 8.00778 11.5385 7.08462 11.5385 5.99995C11.5385 4.91532 10.8692 4.01531 9.92302 3.6462H9.92298Z" fill="#7D8696"/>
<path d="M16.3846 8.03078V0.923005C16.3846 0.415307 15.9693 0 15.4616 0C14.9539 0 14.5386 0.415307 14.5386 0.923005V8.03078C13.5924 8.40005 12.9232 9.32306 12.9232 10.3847C12.9232 11.4693 13.5924 12.3924 14.5618 12.7616C14.5618 12.8078 14.5388 12.8771 14.5388 12.9233V16.154C14.5388 16.6617 14.9541 17.077 15.4618 17.077C15.9695 17.077 16.3848 16.6617 16.3848 16.154L16.3846 12.9231C16.3846 12.8539 16.3846 12.8077 16.3616 12.7615C17.3308 12.3924 18 11.4694 18 10.3847C18 9.30007 17.3308 8.40006 16.3846 8.03078H16.3846Z" fill="#7D8696"/>
<path d="M3.46137 8.03078V0.923005C3.46137 0.415307 3.04607 0 2.53837 0C2.03067 0 1.61536 0.415307 1.61536 0.923005V8.03078C0.669156 8.40005 0 9.32306 0 10.3847C0 11.4693 0.669156 12.3924 1.63856 12.7616C1.63856 12.8078 1.61554 12.8771 1.61554 12.9233V16.154C1.61554 16.6617 2.03085 17.077 2.53855 17.077C3.04625 17.077 3.46155 16.6617 3.46155 16.154L3.46139 12.9231C3.46139 12.8539 3.46139 12.8077 3.43837 12.7615C4.40745 12.3924 5.07677 11.4694 5.07677 10.3847C5.07677 9.30007 4.40745 8.40006 3.46141 8.03078H3.46137Z" fill="#7D8696"/>
</svg>
