<svg width="20" height="20" viewBox="0 0 20 20" fill="none" xmlns="http://www.w3.org/2000/svg">
<path d="M8.70997 11.2902C8.89931 11.4779 9.00579 11.7335 9.00579 12.0002C9.00579 12.2667 8.89931 12.5224 8.70997 12.7102L3.41014 18.0001H6.00023C6.35749 18.0001 6.68763 18.1906 6.86626 18.5C7.04489 18.8094 7.04489 19.1907 6.86626 19.5001C6.68763 19.8095 6.35749 20 6.00023 20H0.99998C0.869229 19.9985 0.740153 19.9714 0.61995 19.92C0.375693 19.8185 0.181512 19.6243 0.0800246 19.3801C0.0286293 19.2599 0.0015086 19.1308 0 19V13.9998C0 13.6426 0.190517 13.3124 0.499896 13.1338C0.809275 12.9552 1.19064 12.9552 1.50003 13.1338C1.80942 13.3124 1.99993 13.6426 1.99993 13.9998V16.5899L7.28989 11.2897V11.2898C7.47773 11.1005 7.73339 10.994 7.99988 10.994C8.26657 10.994 8.52223 11.1005 8.70986 11.2898L8.70997 11.2902ZM19.9203 0.619945C19.8189 0.37569 19.6247 0.181511 19.3804 0.0800239C19.2602 0.028629 19.1311 0.00150859 19.0004 0H14.0001C13.6429 0 13.3127 0.190515 13.1341 0.499892C12.9555 0.809268 12.9555 1.19063 13.1341 1.50002C13.3127 1.80941 13.6429 1.99991 14.0001 1.99991H16.5902L11.29 7.28983H11.2901C11.1008 7.47767 10.9943 7.73332 10.9943 7.99981C10.9943 8.2665 11.1008 8.52216 11.2901 8.70979C11.4778 8.89913 11.7335 9.0056 12.0001 9.0056C12.2666 9.0056 12.5223 8.89913 12.7101 8.70979L18.0001 3.41001V6.00007C18.0001 6.35733 18.1906 6.68746 18.5 6.8661C18.8093 7.04473 19.1907 7.04473 19.5001 6.8661C19.8095 6.68746 20 6.35733 20 6.00007V0.999869C19.9985 0.869119 19.9714 0.740045 19.92 0.619842L19.9203 0.619945Z" fill="#7D8696"/>
</svg>
