<svg width="20" height="20" viewBox="0 0 20 20" fill="none" xmlns="http://www.w3.org/2000/svg">
<path d="M19.8931 7.24247C19.6138 6.3975 18.8955 5.79395 18.0375 5.6532L13.9271 5.04961L12.0912 1.30762C11.6922 0.502957 10.914 0 10.0161 0C9.13813 0 8.34006 0.502957 7.94102 1.30762L6.10529 5.04961L1.99484 5.6532C1.11685 5.77389 0.398519 6.39754 0.119168 7.24247C-0.160175 8.08744 0.0593183 9.01291 0.697752 9.63658L3.67088 12.5537L2.97243 16.6779C2.83269 17.5632 3.17202 18.4282 3.89037 18.9513C4.2894 19.2531 4.76836 19.3939 5.24714 19.3939C5.6263 19.3939 5.98539 19.2933 6.32456 19.1324L10.016 17.1809L13.6874 19.1324C14.0266 19.3134 14.3859 19.3939 14.7649 19.3939C15.2637 19.3939 15.7226 19.233 16.1217 18.9513C16.84 18.4283 17.1991 17.5431 17.0396 16.6779L16.3411 12.5537L19.3143 9.63658C19.9329 9.01295 20.1524 8.08744 19.893 7.24247H19.8931ZM14.366 12.5135L15.1243 16.9998C15.1442 17.1407 15.0843 17.2815 14.9646 17.3821C14.8449 17.4625 14.6853 17.4827 14.5656 17.4022L10.5748 15.2897C10.2158 15.1087 9.77677 15.1087 9.41754 15.2897L5.42681 17.4022C5.30711 17.4625 5.14747 17.4625 5.02778 17.3821C4.90808 17.3017 4.84823 17.1608 4.86813 16.9998L5.66634 12.5135C5.72619 12.1111 5.60649 11.6886 5.30725 11.4069L2.07466 8.22834C1.97486 8.12772 1.93492 7.96676 1.97486 7.84605C2.01481 7.70516 2.13451 7.60468 2.27411 7.58447L6.74372 6.92057C7.14276 6.86023 7.50199 6.59865 7.68154 6.23658L9.6769 2.15258C9.73675 2.01168 9.87649 1.93127 10.0161 1.93127C10.1558 1.93127 10.2954 2.01168 10.3553 2.15258L12.3506 6.23658C12.5302 6.59864 12.8694 6.86022 13.2885 6.92057L17.7581 7.58447C17.8978 7.60454 18.0175 7.70516 18.0573 7.84605C18.0973 7.98695 18.0573 8.1277 17.9575 8.22834L14.7251 11.407C14.4258 11.6887 14.306 12.1111 14.3658 12.5134L14.366 12.5135Z" fill="#7D8696"/>
</svg>
